<svg width="14" height="14" viewBox="0 0 14 14" fill="none" xmlns="http://www.w3.org/2000/svg">
<path fill-rule="evenodd" clip-rule="evenodd" d="M1.34317 2.75729L11.2427 12.6568C11.6316 13.0457 12.268 13.0457 12.6569 12.6568C13.0458 12.2679 13.0458 11.6315 12.6569 11.2426L2.75738 1.34308C2.36847 0.954168 1.73208 0.954168 1.34317 1.34308C0.954258 1.73199 0.954258 2.36838 1.34317 2.75729Z" fill="white"/>
<path fill-rule="evenodd" clip-rule="evenodd" d="M2.75741 12.6568L12.6569 2.75728C13.0458 2.36837 13.0458 1.73197 12.6569 1.34306C12.268 0.954155 11.6316 0.954155 11.2427 1.34306L1.3432 11.2426C0.95429 11.6315 0.95429 12.2679 1.3432 12.6568C1.73211 13.0457 2.3685 13.0457 2.75741 12.6568Z" fill="white"/>
</svg>
